  0
SECTION
  2
HEADER
  9
$ACADVER
  1
AC1009
  0
ENDSEC
  0
SECTION
  2
TABLES
  0
TABLE
  2
LAYER
 70
     2
  0
LAYER
  2
0
 70
     0
 62
     7
  6
CONTINUOUS
  0
LAYER
  2
CENTER_
 70
     0
 62
     1
  6
CONTINUOUS
  0
ENDTAB
  0
ENDSEC
  0
SECTION
  2
ENTITIES
  0
LINE
  8
CENTER_
 10
    13.314707
 20
    -9.542002
 30
     0.581159
 11
    12.811294
 21
    -9.894632
 31
     0.527340
  0
LINE
  8
CENTER_
 10
    13.464328
 20
    -9.437196
 30
     0.597154
 11
    13.314707
 21
    -9.542002
 31
     0.581159
  0
LINE
  8
CENTER_
 10
    13.226609
 20
    -0.821812
 30
     1.485335
 11
    13.510519
 21
    -0.996047
 31
     1.456248
  0
LINE
  8
CENTER_
 10
    12.812356
 20
    -0.567585
 30
     1.527776
 11
    13.226609
 21
    -0.821812
 31
     1.485335
  0
LINE
  8
CENTER_
 10
     7.975431
 20
    -0.000002
 30
     1.958128
 11
    10.442820
 21
    -0.000005
 31
     1.742310
  0
LINE
  8
CENTER_
 10
     5.890386
 20
     0.000000
 30
     2.140504
 11
     7.975431
 21
    -0.000002
 31
     1.958128
  0
LINE
  8
CENTER_
 10
    14.093298
 20
    -8.910307
 30
     0.668800
 11
    13.464328
 21
    -9.437196
 31
     0.597154
  0
LINE
  8
CENTER_
 10
    14.631490
 20
    -8.291139
 30
     0.740435
 11
    14.093298
 21
    -8.910307
 31
     0.668800
  0
LINE
  8
CENTER_
 10
    15.065552
 20
    -7.595136
 30
     0.812061
 11
    14.631490
 21
    -8.291139
 31
     0.740435
  0
LINE
  8
CENTER_
 10
    15.384730
 20
    -6.839646
 30
     0.883676
 11
    15.065552
 21
    -7.595136
 31
     0.812061
  0
LINE
  8
CENTER_
 10
    15.581134
 20
    -6.043481
 30
     0.955281
 11
    15.384730
 21
    -6.839646
 31
     0.883676
  0
LINE
  8
CENTER_
 10
    15.649933
 20
    -5.226453
 30
     1.026876
 11
    15.581134
 21
    -6.043481
 31
     0.955281
  0
LINE
  8
CENTER_
 10
    15.589468
 20
    -4.408879
 30
     1.098461
 11
    15.649933
 21
    -5.226453
 31
     1.026876
  0
LINE
  8
CENTER_
 10
    15.401295
 20
    -3.611076
 30
     1.170037
 11
    15.589468
 21
    -4.408879
 31
     1.098461
  0
LINE
  8
CENTER_
 10
    15.090129
 20
    -2.852830
 30
     1.241605
 11
    15.401295
 21
    -3.611076
 31
     1.170037
  0
LINE
  8
CENTER_
 10
    14.663764
 20
    -2.153003
 30
     1.313161
 11
    15.090129
 21
    -2.852830
 31
     1.241605
  0
LINE
  8
CENTER_
 10
    14.132809
 20
    -1.528907
 30
     1.384711
 11
    14.663764
 21
    -2.153003
 31
     1.313161
  0
LINE
  8
CENTER_
 10
    13.510519
 20
    -0.996047
 30
     1.456248
 11
    14.132809
 21
    -1.528907
 31
     1.384711
  0
LINE
  8
CENTER_
 10
    12.055671
 20
    -0.254111
 30
     1.599295
 11
    12.812356
 21
    -0.567585
 31
     1.527776
  0
LINE
  8
CENTER_
 10
    11.259254
 20
    -0.063356
 30
     1.670805
 11
    12.055671
 21
    -0.254111
 31
     1.599295
  0
LINE
  8
CENTER_
 10
    10.442820
 20
    -0.000005
 30
     1.742310
 11
    11.259254
 21
    -0.063356
 31
     1.670805
  0
LINE
  8
CENTER_
 10
     5.125839
 20
     0.000000
 30
     2.309995
 11
     5.890386
 21
     0.000000
 31
     2.140504
  0
LINE
  8
CENTER_
 10
     4.847554
 20
     0.000000
 30
     2.454854
 11
     5.125839
 21
     0.000000
 31
     2.309995
  0
LINE
  8
CENTER_
 10
     2.300000
 20
     0.000000
 30
     6.290821
 11
     3.432936
 21
     0.000000
 31
     3.861232
  0
LINE
  8
CENTER_
 10
     3.432936
 20
     0.000000
 30
     3.861232
 11
     3.853786
 21
     0.000000
 31
     3.200653
  0
LINE
  8
CENTER_
 10
     3.853786
 20
     0.000000
 30
     3.200653
 11
     4.431197
 21
     0.000000
 31
     2.671584
  0
LINE
  8
CENTER_
 10
     4.431197
 20
     0.000000
 30
     2.671584
 11
     4.847554
 21
     0.000000
 31
     2.454854
  0
LINE
  8
CENTER_
 10
     1.615677
 20
     0.000000
 30
     7.758357
 11
     2.300000
 21
     0.000000
 31
     6.290821
  0
LINE
  8
CENTER_
 10
     0.000000
 20
     0.000000
 30
     8.278000
 11
     0.799995
 21
     0.000000
 31
     8.278000
  0
LINE
  8
CENTER_
 10
     0.799995
 20
     0.000000
 30
     8.278000
 11
     1.283531
 21
     0.000000
 31
     8.137077
  0
LINE
  8
CENTER_
 10
     1.283531
 20
     0.000000
 30
     8.137077
 11
     1.615677
 21
     0.000000
 31
     7.758357
  0
ENDSEC
  0
EOF
